<?xml version="1.0" encoding="utf-8"?>
<svg id="master-artboard" viewBox="0 0 855.3252563476562 798.9840698242188" version="1.1" xmlns="http://www.w3.org/2000/svg" x="0px" y="0px" style="enable-background:new 0 0 850.4 1133.9;" width="855.3252563476562px" height="798.9840698242188px" xmlns:xlink="http://www.w3.org/1999/xlink">

<defs>
		<path d="M 0 0 H 850.400024 V 1133.900024 H 0 V 0 Z" id="SVGID_1_"/>
	</defs><clipPath id="SVGID_2_">
		<use style="overflow:visible;" xlink:href="#SVGID_1_"/>
	</clipPath>
<g transform="matrix(0.7430582046508789, 0, 0, 0.7430582046508789, 8.208734273910522, 321.63975524902344)"><rect id="ee-background" x="0" y="0" width="855.3252563476562" height="798.9840698242188" style="fill: white; fill-opacity: 0; pointer-events: none;"/><g transform="matrix(0.7812497615814209, 0, 0, 0.7812497615814209, 3.4832911491394043, 23.647260665893555)"><path d="M 40.90995407104492 18.76596450805664 L 51.423744201660156 18.999603271484375 L 63.33937454223633 41.66266632080078 L 57.264739990234375 50.77461624145508 L 24.76803970336914 50.30733871459961 L 40.90995407104492 18.76596450805664 Z" style="fill: rgb(141, 206, 255); fill-opacity: 0; stroke: rgb(0, 0, 0); stroke-opacity: 1; stroke-width: 2; paint-order: fill;" transform="matrix(22.04769515991211, 0, 0, 22.04769515991211, -283.382940405593, -749.378662109375)"/><path d="M 36.47079849243164 11.0558500289917 L 41.143592834472656 19.233243942260742" style="fill: rgb(141, 206, 255); fill-opacity: 0; stroke: rgb(0, 0, 0); stroke-opacity: 1; stroke-width: 2; paint-order: fill;" transform="matrix(22.04769515991211, 0, 0, 22.04769515991211, -283.382940405593, -749.378662109375)"/><path d="M 31.097082138061523 19.934162139892578 L 36.003517150878906 27.1769962310791 L 46.984588623046875 27.644275665283203 L 50.72282409667969 19.700523376464844" style="fill: rgb(141, 206, 255); fill-opacity: 0; stroke: rgb(0, 0, 0); stroke-opacity: 1; stroke-width: 2; paint-order: fill;" transform="matrix(22.04769515991211, 0, 0, 22.04769515991211, -283.382940405593, -749.378662109375)"/><path d="M 33.43347930908203 68.29759979248047 L 38.10627746582031 58.71836853027344 L 33.900760650634766 50.540977478027344 L 46.27328872680664 28.324426651000977 L 62.89286422729492 58.06937026977539 L 68.24581146240234 50.05293655395508 L 76.65684509277344 49.840057373046875" style="fill: rgb(141, 206, 255); fill-opacity: 0; stroke: rgb(0, 0, 0); stroke-opacity: 1; stroke-width: 2; paint-order: fill;" transform="matrix(22.04769515991211, 0, 0, 22.04769515991211, -283.382940405593, -749.378662109375)"/><path d="M 72.68496704101562 41.19538497924805 L 63.33937454223633 41.42902374267578 L 68.24581146240234 49.840057373046875" style="fill: rgb(141, 206, 255); fill-opacity: 0; stroke: rgb(0, 0, 0); stroke-opacity: 1; stroke-width: 2; paint-order: fill;" transform="matrix(22.04769515991211, 0, 0, 22.04769515991211, -283.382940405593, -749.378662109375)"/><path d="M 24.3215274810791 67.5966796875 L 28.52704429626465 58.71836853027344 L 63.80665588378906 59.18564987182617" style="fill: rgb(141, 206, 255); fill-opacity: 0; stroke: rgb(0, 0, 0); stroke-opacity: 1; stroke-width: 2; paint-order: fill;" transform="matrix(22.047700881958008, 0, 0, 22.047700881958008, -303.07233249543674, -754.30126953125)"/><path d="M 28.01822853088379 59.102577209472656 L 24.067119598388672 50.53059387207031" style="fill: rgb(141, 206, 255); fill-opacity: 0; stroke: rgb(0, 0, 0); stroke-opacity: 1; stroke-width: 2; paint-order: fill;" transform="matrix(22.04769515991211, 0, 0, 22.04769515991211, -283.382940405593, -749.378662109375)"/><path d="M 70.15126037597656 50.07883071899414" style="fill: rgb(255, 255, 255); fill-opacity: 0; stroke: rgb(0, 0, 0); stroke-opacity: 1; stroke-width: 2; paint-order: fill;"/><path style="fill: rgb(255, 255, 255); fill-opacity: 0; stroke: rgb(0, 0, 0); stroke-opacity: 1; stroke-width: 2; paint-order: fill;" d="M 36.47079849243164 10.354930877685547 L 55.6292610168457 10.121291160583496 L 77.82504272460938 50.77461624145508 L 67.77853393554688 68.29759979248047 L 25.022445678710938 67.830322265625 L 14.275015830993652 49.840057373046875 L 36.47079849243164 10.354930877685547 Z" transform="matrix(22.047693252563477, 0, 0, 22.047693252563477, -297.46307956574924, -756.7048950195312)"/><path d="M 108.7745132446289 52.75790023803711" style="fill: rgb(255, 255, 255); fill-opacity: 0; stroke: rgb(0, 0, 0); stroke-opacity: 1; stroke-width: 2; paint-order: fill;"/><path d="M 107.55899810791016 53.20439147949219" style="fill: rgb(141, 206, 255); fill-opacity: 0; stroke: rgb(0, 0, 0); stroke-opacity: 1; stroke-width: 2; paint-order: fill;"/><path d="M 89.6985092163086 26.636920928955078" style="fill: rgb(141, 206, 255); fill-opacity: 0; stroke: rgb(0, 0, 0); stroke-opacity: 1; stroke-width: 2; paint-order: fill;"/><path d="M 91.48453521728516 45.61363983154297" style="fill: rgb(141, 206, 255); fill-opacity: 0; stroke: rgb(0, 0, 0); stroke-opacity: 1; stroke-width: 2; paint-order: fill;"/><path d="M 83.00320434570312 -17.789949417114258" style="fill: rgb(182, 201, 219); fill-opacity: 1; stroke: rgb(255, 255, 255); stroke-opacity: 1; stroke-width: 1; paint-order: fill;"/></g></g></svg>