<?xml version="1.0" encoding="utf-8"?>
<svg id="master-artboard" xmlns="http://www.w3.org/2000/svg" viewBox="0 0 1144.4595947265625 240.47775268554688" width="1144.4595947265625px" height="240.47775268554688px"><rect id="ee-background" x="0" y="0" width="1144.4595947265625" height="240.47775268554688" style="fill: white; fill-opacity: 0; pointer-events: none;"/><g transform="matrix(0.7812497615814209, 0, 0, 0.7812497615814209, 3.4832911491394043, 23.647260665893555)"><g transform="matrix(4.423226356506348, 0, 0, 4.423226356506348, -77.66873695637616, -3.6289126873016357)"><path style="fill: rgb(255, 255, 255); stroke: none;" d="M93 11L93 45L100 45L100 25L100 19L100 17L100.083 15L100.222 14.0556L100.417 13.0556L101 11L93 11z" transform="matrix(1, 0, 0, 1, 0, 1.4210854715202004e-14)"/><path style="fill: rgb(255, 255, 255); stroke: none;" d="M130 45L130 40L128.5 39.8889L126.944 39.3611L126 38.8889L125 38.2778L124.028 37.5833L122.25 35.9167L121.5 34.9722L120.917 34L120.028 32L119.417 30L119.222 29L119.111 28L119.111 27L119.222 26L119.417 25L120.111 23L121.306 21L123.028 19.0833L125 17.5L126 16.9167L127 16.4167L129 15.6944L131 15.3056L133 15.5L134 15.8333L136 16.6389L137 17.0833L138.972 18.3056L139.917 19.1111L141.528 21L142.722 23L143.139 24L143.528 25L143.75 26L143.917 27L143.917 29L143.528 31L143.139 32L142.139 34L141.528 35L139.917 36.9167L138 38.5L137 39.0833L136 39.5833L134.056 40.3333L133.5 40.5556L132 41L132 46L133.5 45.75L135.056 45.3889L137 45.0556L138 44.9444L140 44.5278L142 43.7222L143 43.1389L144 42.5278L145.972 40.9167L146.917 39.9722L148.5 38L149.056 37L149.5 36L149.917 34L150 32L150 31L150 29L150 27L150 26L149.917 24L149.583 22L149.306 21L148.583 19L147.5 17L146.75 16.0278L145.917 15.0833L144 13.4722L142 12.2778L141 11.8611L140 11.4722L138 11.0833L136 11L135 11L134 11L131 11L128 11L127 11L125 11.0278L124 11.0833L122 11.5L120 12.4167L118.083 13.6944L116.417 15.2222L115.694 16.0833L114.417 18L113.472 20L112.861 22L112.639 23L112.222 25L112.083 26L112.083 28L112.389 30L112.611 31L112.806 32L113.222 34L113.472 35L114.278 37L114.861 38L115.472 38.9722L117.083 40.7778L118.028 41.5833L120 42.9722L122 44.0833L123 44.5L124 44.75L126 44.9722L126.944 45L127.944 45L130 45z" transform="matrix(1, 0, 0, 1, 0, 1.4210854715202004e-14)"/><path style="fill: rgb(255, 255, 255); stroke: none;" d="M155 11L155 16L164 16L166 16L167 16L169 16.0833L171 16.4722L173 17.2778L174 17.8611L174.972 18.4722L176.75 20.0833L177.5 21.0278L178.583 23L178.972 24L179.5 26L179.528 28L179.139 30L178.833 31L178.139 33L177.722 34L176.528 35.9167L174.917 37.5833L173 38.8889L171 39.6944L170 39.8889L169 39.9722L167 40L165.056 40L162 40L162 17L155 17L155 45L171 45L173 45L174 45L176 44.9167L178 44.5L180 43.5L181.889 41.9167L182.694 40.9722L183.361 40L184.361 38L185.167 36L185.528 35L185.917 33L185.972 32L186 30L186 29L186 27L186 25L186 24L185.972 23L185.75 21L185.5 20L184.583 18L183.306 16.0278L181.778 14.25L180.917 13.5L179 12.5L177 12L176 11.8056L175 11.6111L174 11.3889L172 11.0833L170 11L169 11L168 11L165 11L155 11z" transform="matrix(1, 0, 0, 1, 0, 1.4210854715202004e-14)"/><path style="fill: rgb(255, 255, 255); stroke: none;" d="M191 11L191 46L213 46L213 40L210.944 40.5833L209.944 40.7778L209 40.9167L207 41L206 41L204 41L198 41L197 40L197 16L214 16L214 11L191 11z" transform="matrix(1, 0, 0, 1, 0, 1.4210854715202004e-14)"/><path style="fill: rgb(255, 255, 255); stroke: none;" d="M229 31L229 25L227.5 24.6389L225.972 23.6667L225.139 22.8889L224.444 21.9722L224.056 21L224.444 19.0833L226.028 17.5L228 16.5L229 16.25L230 16.0833L232 16L234 16.0278L235 16.0833L236.944 16.3889L238.5 16.75L240 17L240 12L238.5 11.75L236.944 11.3889L235 11.0833L234 11.0278L232 11L230 11L229 11L228 11L226 11.0833L224 11.5L222 12.5L220.111 14.0833L219.306 15.0278L218.639 16L218.111 17L217.417 19L217.222 20L217.111 22L217.472 24L217.861 25L218.861 26.9167L220.25 28.5L221.083 29.0833L223 29.9722L225 30.5833L225.944 30.7778L227.5 30.9722L229 31z" transform="matrix(1, 0, 0, 1, 0, 1.4210854715202004e-14)"/><path style="fill: rgb(255, 255, 255); stroke: none;" d="M244 12L243.75 13.5L243.611 14L243.25 15.5L243 17L244.5 16.75L246.056 16.3889L248 16.0833L249 16.0278L251 16L252 16L255 16L258 16L260 16L262 16.0278L263 16.0833L264.944 16.3889L266.5 16.75L268 17L268 12L265.944 11.6944L264 11.6111L262 11.8056L261 11.9167L259 12L257 12L254 12L244 12z" transform="matrix(1, 0, 0, 1, 0, 1.4210854715202004e-14)"/><path style="fill: rgb(255, 255, 255); stroke: none;" d="M278 12L277 13.5L276.778 14.0556L276.194 15.0556L275.778 16L274.778 18L274.222 19L273.778 20L273.222 21L272.778 22L272.222 23L271.778 24L271.222 25L270.778 26L270.222 27L269.778 28L269.222 29L268.778 30L268.222 31L267.222 33L266.778 34L266.222 35L265.778 36L265.222 37L264.778 38L264.25 39L263.833 40L262.944 42L262 43.9444L261.667 44.5L261 46L269 46L269.278 44.5L269.861 42.9444L270.25 42L270.778 41L271.75 39L272.139 38.0556L272.722 36.5L273 35L285 35L285 31L276 31L276.444 29.5L276.667 28.9444L277.389 27L278.25 25L278.75 24L279.167 23L280 21.0556L280.194 20.5L281 19L281.806 20.5L281.972 21.0556L282.361 22.0556L282.667 23L283.389 25L283.806 26L284.611 28L285.389 30L285.806 31L286.556 33L286.833 34L287.444 36L287.833 37L288.194 38L288.611 39L289.389 41L289.806 42L290.528 43.9444L290.722 44.5L291 46L299 46L298.5 44.5L298.167 43.9444L297.75 42.9444L297.25 42L296.444 40L296.167 39L295.556 37L294.806 35L294.389 34L293.611 32L292.75 30L292.25 29L291.389 27L290.611 25L289.75 23L289.25 22L288.389 20L288.028 19L287.306 17L286.917 16L286 14.0556L285.667 13.5L285 12L278 12z" transform="matrix(1, 0, 0, 1, 0, 1.4210854715202004e-14)"/><path style="fill: rgb(255, 255, 255); stroke: none;" d="M301 12L301 16L309 16L312 16L313 16L315 16L316 16.0278L317 16.1111L319 16.7222L320.889 18.1111L321.639 19.0278L322.417 21L322.389 22L321.5 24L319.917 25.8889L318 27.2778L316 27.8889L315.056 27.9722L313.5 28L312 28L312.278 29.5L312.861 31.0556L313.25 32L313.778 33L314.222 34L314.778 35L315.778 37L316.222 38L316.778 39L317.222 40L318.222 42L318.75 42.9444L319.167 43.9444L319.5 44.5L320 46L328 46L327.5 44.5L327.167 43.9444L326.75 42.9444L326.222 42L325.222 40L324.778 39L324.222 38L323.778 37L322.806 35.0556L322.222 34.0556L322 33.5L321 32L322.5 31.5L323.056 31.1667L324.056 30.7222L325.917 29.5278L327.5 27.9167L328.5 26L328.917 24L328.972 23L329 21L329 20L328.972 18L328.889 17L328.667 16.0278L327.667 14.25L325.972 12.9444L325 12.5L323 12.0833L322 12.0278L320 12L318 12L301 12z" transform="matrix(1, 0, 0, 1, 0, 1.4210854715202004e-14)"/><path style="fill: rgb(255, 255, 255); stroke: none;" d="M301 17L301 46L308 46L308 17L301 17z" transform="matrix(1, 0, 0, 1, 0, 1.4210854715202004e-14)"/><path style="fill: rgb(255, 255, 255); stroke: none;" d="M253 18L253 33L253 38L253 40L252.917 42L252.778 42.9444L252.583 43.9444L252 46L259 46L259 18L253 18z" transform="matrix(1, 0, 0, 1, 0, 1.4210854715202004e-14)"/><path style="fill: rgb(255, 255, 255); stroke: none;" d="M199 25L199 30L211 30L211 25L199 25z" transform="matrix(1, 0, 0, 1, 0, 1.4210854715202004e-14)"/><path style="fill: rgb(255, 255, 255); stroke: none;" d="M231 26L231 31L232.5 32L233.056 32.2222L234.944 33.1667L235.5 33.5L237 34L237 39L235.5 39.5L234.944 39.8333L233.944 40.25L233 40.75L231 41.5278L229 41.8333L228 41.75L227 41.6111L225 41.1944L223 40.8056L222 40.6111L220.056 40.2222L219.5 40.0833L218 40L218 45L219.5 45.25L221.056 45.6111L223 45.9167L224 45.9722L225 46L227 46L230 46L231 46L233 45.9722L234 45.9167L236 45.5833L237 45.2778L238.972 44.3611L239.917 43.6944L241.5 41.9722L242.5 40L242.917 38L242.972 37L243 35L242.889 33L242.667 32L242.278 31L240.889 29.1111L239 27.7222L238 27.3056L237 27.0278L235 26.6111L233.056 26.2222L232.5 26.0833L231 26z" transform="matrix(1, 0, 0, 1, 0, 1.4210854715202004e-14)"/><path style="fill: rgb(255, 255, 255); stroke: none;" d="M102 40L102 45L114 45L114 40L102 40z" transform="matrix(1, 0, 0, 1, 0, 1.4210854715202004e-14)"/></g><path d="M 40.90995407104492 18.76596450805664 L 51.423744201660156 18.999603271484375 L 63.33937454223633 41.66266632080078 L 57.264739990234375 50.77461624145508 L 24.76803970336914 50.30733871459961 L 40.90995407104492 18.76596450805664 Z" style="fill: rgb(141, 206, 255); fill-opacity: 0; stroke: rgb(255, 255, 255); stroke-opacity: 1; stroke-width: 2; paint-order: fill;" transform="matrix(4.008480548858643, 0, 0, 4.008480548858643, -46.78313965484733, -36.583961714377836)"/><path d="M 36.47079849243164 11.0558500289917 L 41.143592834472656 19.233243942260742" style="fill: rgb(141, 206, 255); fill-opacity: 0; stroke: rgb(255, 255, 255); stroke-opacity: 1; stroke-width: 2; paint-order: fill;" transform="matrix(4.008480548858643, 0, 0, 4.008480548858643, -46.78313965484733, -36.583961714377836)"/><path d="M 31.097082138061523 19.934162139892578 L 36.003517150878906 27.1769962310791 L 46.984588623046875 27.644275665283203 L 50.72282409667969 19.700523376464844" style="fill: rgb(141, 206, 255); fill-opacity: 0; stroke: rgb(255, 255, 255); stroke-opacity: 1; stroke-width: 2; paint-order: fill;" transform="matrix(4.008480548858643, 0, 0, 4.008480548858643, -46.78313965484733, -36.583961714377836)"/><path d="M 33.43347930908203 68.29759979248047 L 38.10627746582031 58.71836853027344 L 33.900760650634766 50.540977478027344 L 46.27328872680664 28.324426651000977 L 62.89286422729492 58.06937026977539 L 68.24581146240234 50.05293655395508 L 76.65684509277344 49.840057373046875" style="fill: rgb(141, 206, 255); fill-opacity: 0; stroke: rgb(255, 255, 255); stroke-opacity: 1; stroke-width: 2; paint-order: fill;" transform="matrix(4.008480548858643, 0, 0, 4.008480548858643, -46.78313965484733, -36.583961714377836)"/><path d="M 72.68496704101562 41.19538497924805 L 63.33937454223633 41.42902374267578 L 68.24581146240234 49.840057373046875" style="fill: rgb(141, 206, 255); fill-opacity: 0; stroke: rgb(255, 255, 255); stroke-opacity: 1; stroke-width: 2; paint-order: fill;" transform="matrix(4.008480548858643, 0, 0, 4.008480548858643, -46.78313965484733, -36.583961714377836)"/><path d="M 24.3215274810791 67.5966796875 L 28.52704429626465 58.71836853027344 L 63.80665588378906 59.18564987182617" style="fill: rgb(141, 206, 255); fill-opacity: 0; stroke: rgb(255, 255, 255); stroke-opacity: 1; stroke-width: 2; paint-order: fill;" transform="matrix(4.008480548858643, 0, 0, 4.008480548858643, -50.36279434845085, -37.478883017173246)"/><path d="M 28.01822853088379 59.102577209472656 L 24.067119598388672 50.53059387207031" style="fill: rgb(141, 206, 255); fill-opacity: 0; stroke: rgb(255, 255, 255); stroke-opacity: 1; stroke-width: 2; paint-order: fill;" transform="matrix(4.008480548858643, 0, 0, 4.008480548858643, -46.78313965484733, -36.583961714377836)"/><path d="M 70.15126037597656 50.07883071899414" style="fill: rgb(255, 255, 255); fill-opacity: 0; stroke: rgb(0, 0, 0); stroke-opacity: 1; stroke-width: 2; paint-order: fill;"/><path style="fill: rgb(255, 255, 255); fill-opacity: 0; stroke: rgb(255, 255, 255); stroke-opacity: 1; stroke-width: 2; paint-order: fill;" d="M 36.47079849243164 10.354930877685547 L 55.6292610168457 10.121291160583496 L 77.82504272460938 50.77461624145508 L 67.77853393554688 68.29759979248047 L 25.022445678710938 67.830322265625 L 14.275015830993652 49.840057373046875 L 36.47079849243164 10.354930877685547 Z" transform="matrix(4.008480072021484, 0, 0, 4.008480072021484, -49.34301514312847, -37.915925253501314)"/><path d="M 108.7745132446289 52.75790023803711" style="fill: rgb(255, 255, 255); fill-opacity: 0; stroke: rgb(0, 0, 0); stroke-opacity: 1; stroke-width: 2; paint-order: fill;"/><path d="M 107.55899810791016 53.20439147949219" style="fill: rgb(141, 206, 255); fill-opacity: 0; stroke: rgb(0, 0, 0); stroke-opacity: 1; stroke-width: 2; paint-order: fill;"/><path d="M 89.6985092163086 26.636920928955078" style="fill: rgb(141, 206, 255); fill-opacity: 0; stroke: rgb(0, 0, 0); stroke-opacity: 1; stroke-width: 2; paint-order: fill;"/><path d="M 91.48453521728516 45.61363983154297" style="fill: rgb(141, 206, 255); fill-opacity: 0; stroke: rgb(0, 0, 0); stroke-opacity: 1; stroke-width: 2; paint-order: fill;"/><path d="M 83.00320434570312 -17.789949417114258" style="fill: rgb(182, 201, 219); fill-opacity: 1; stroke: rgb(255, 255, 255); stroke-opacity: 1; stroke-width: 1; paint-order: fill;"/></g></svg>