<?xml version="1.0" standalone="no"?>
<!DOCTYPE svg PUBLIC "-//W3C//DTD SVG 20010904//EN"
 "http://www.w3.org/TR/2001/REC-SVG-20010904/DTD/svg10.dtd">
<svg version="1.0" xmlns="http://www.w3.org/2000/svg"
 width="855.000000pt" height="855.000000pt" viewBox="0 0 855.000000 855.000000"
 preserveAspectRatio="xMidYMid meet">
<metadata>
Created by potrace 1.11, written by Peter Selinger 2001-2013
</metadata>
<g transform="translate(0.000000,855.000000) scale(0.100000,-0.100000)"
fill="#000000" stroke="none">
<path d="M5367 8103 c-1 -1 -218 -4 -482 -7 -512 -7 -1266 -16 -1660 -21 -132
-2 -243 -3 -247 -4 -6 -1 -31 -42 -83 -136 -28 -49 -234 -417 -272 -485 -101
-178 -302 -536 -326 -580 -17 -30 -41 -72 -54 -92 -13 -21 -23 -40 -23 -42 0
-2 -22 -42 -48 -88 -26 -46 -51 -90 -55 -98 -4 -8 -13 -24 -20 -35 -7 -11 -43
-76 -82 -145 -38 -69 -78 -138 -88 -155 -9 -16 -20 -38 -23 -47 -4 -10 -11
-18 -16 -18 -5 0 -7 -4 -3 -9 3 -5 -1 -15 -8 -23 -7 -7 -21 -29 -30 -48 -9
-19 -28 -53 -42 -75 -13 -22 -31 -53 -40 -70 -8 -16 -19 -37 -24 -45 -6 -8
-29 -49 -52 -90 -23 -41 -53 -95 -67 -120 -14 -25 -37 -66 -51 -92 -14 -25
-71 -126 -126 -224 -55 -98 -101 -184 -103 -191 -2 -7 -7 -13 -11 -13 -4 0
-13 -16 -21 -35 -8 -19 -17 -35 -20 -35 -3 0 -12 -16 -20 -35 -8 -19 -18 -35
-24 -35 -5 0 -6 -3 -3 -7 4 -3 2 -12 -5 -20 -15 -18 -67 -113 -75 -135 -3 -10
-9 -18 -14 -18 -5 0 -9 -4 -9 -10 0 -5 -62 -119 -137 -252 -75 -134 -144 -258
-152 -275 -8 -18 -19 -33 -23 -33 -4 0 -8 -4 -8 -10 0 -9 -149 -280 -160 -290
-3 -3 -17 -27 -31 -55 -14 -27 -97 -176 -184 -330 -87 -154 -168 -298 -180
-320 -12 -22 -63 -113 -113 -203 l-92 -163 145 -242 c79 -133 149 -247 154
-254 6 -7 11 -15 11 -18 0 -6 293 -500 341 -574 16 -24 34 -57 41 -72 7 -16
16 -29 20 -29 5 0 8 -5 8 -11 0 -6 10 -25 22 -42 12 -17 23 -38 25 -46 1 -8 6
-17 11 -20 5 -3 20 -25 33 -48 13 -23 53 -91 89 -150 36 -59 70 -117 76 -128
6 -11 43 -73 82 -138 40 -65 72 -122 72 -126 0 -4 9 -16 20 -26 11 -10 20 -22
20 -28 0 -5 30 -58 66 -117 54 -88 65 -113 60 -137 -5 -24 -2 -30 26 -44 18
-8 39 -27 48 -41 8 -15 30 -51 48 -82 l32 -56 198 -1 c108 0 323 -2 477 -4
154 -2 359 -5 455 -6 96 -1 185 -5 197 -10 12 -5 25 -5 27 0 5 8 123 7 1001
-4 242 -3 456 -5 475 -4 19 0 40 1 45 1 6 -1 215 -3 465 -6 250 -3 667 -8 925
-11 259 -3 669 -8 911 -10 l442 -4 250 437 c138 240 351 613 474 827 123 215
235 410 249 435 13 25 26 47 29 50 3 3 10 14 16 25 29 53 64 115 95 168 19 32
48 82 64 112 17 29 57 100 90 157 33 57 66 116 74 131 16 31 19 23 -60 167
-25 47 -63 117 -84 155 -21 39 -45 84 -55 100 -10 17 -34 62 -55 100 -21 39
-50 93 -66 122 -38 69 -74 135 -113 208 -18 33 -50 91 -71 129 -68 123 -93
169 -130 241 -21 39 -41 75 -45 80 -4 6 -26 46 -50 90 -23 44 -61 114 -83 155
-22 41 -43 80 -47 85 -4 6 -31 55 -60 110 -29 55 -69 129 -90 165 -20 36 -61
110 -90 165 -29 55 -56 105 -60 110 -4 6 -26 46 -50 90 -24 44 -56 105 -73
135 -17 30 -41 75 -55 100 -13 25 -37 68 -52 95 -15 28 -44 82 -65 120 -21 39
-61 113 -90 165 -28 52 -71 131 -95 175 -24 44 -48 89 -54 100 -6 11 -13 22
-16 25 -3 3 -20 34 -38 70 -18 36 -37 72 -42 80 -38 62 -170 311 -170 319 0 6
-4 11 -10 11 -5 0 -10 4 -10 9 0 5 -27 58 -60 117 -33 59 -60 109 -60 110 0 2
-33 63 -73 136 -41 73 -90 162 -109 198 -19 36 -50 92 -68 125 -18 33 -60 110
-93 170 -33 61 -70 128 -82 150 -102 186 -152 278 -185 340 -15 28 -38 70 -52
95 -14 25 -46 86 -73 135 -26 50 -52 94 -56 99 -7 8 -205 16 -212 9z m66 -278
c8 -11 32 -54 54 -95 22 -41 49 -91 60 -110 11 -19 39 -71 63 -115 23 -44 66
-123 95 -175 75 -136 125 -229 149 -275 12 -22 27 -46 34 -53 6 -7 12 -17 12
-22 0 -4 54 -105 119 -224 65 -119 116 -216 112 -216 -3 0 -1 -4 4 -8 6 -4 15
-16 21 -27 6 -11 41 -76 79 -145 81 -150 120 -220 153 -280 13 -25 43 -79 65
-120 22 -41 58 -106 79 -143 21 -38 38 -70 38 -72 0 -1 27 -51 60 -110 33 -59
60 -109 60 -110 0 -2 17 -34 38 -72 36 -62 68 -121 126 -228 13 -22 46 -85 76
-140 29 -55 62 -112 72 -127 11 -16 16 -28 13 -28 -3 0 3 -13 14 -29 12 -16
21 -31 21 -34 0 -3 30 -58 66 -122 36 -65 70 -127 75 -139 9 -21 20 -39 52
-88 10 -16 15 -28 11 -28 -3 0 -2 -6 4 -12 11 -15 21 -33 117 -208 37 -69 76
-140 86 -157 10 -18 15 -34 11 -34 -4 -1 -62 -3 -130 -4 -67 -2 -129 -5 -137
-9 -8 -3 -15 -1 -15 5 0 6 -5 7 -11 3 -6 -3 -79 -8 -162 -10 -84 -1 -205 -4
-269 -6 -64 -1 -119 0 -121 2 -2 3 -32 59 -67 125 -34 66 -82 156 -105 200
-23 44 -68 130 -100 190 -32 61 -77 146 -100 190 -23 44 -68 130 -100 190 -32
61 -79 151 -105 200 -26 50 -69 131 -95 180 -26 50 -52 96 -57 103 -6 6 -7 12
-4 12 4 0 -1 12 -11 28 -11 15 -39 65 -62 112 -24 47 -60 117 -81 155 -20 39
-66 124 -100 190 -34 66 -75 143 -90 170 -40 72 -90 174 -91 182 0 5 -6 15
-13 23 -7 8 -30 49 -51 90 -21 41 -55 107 -75 145 -21 39 -66 124 -100 190
-35 66 -71 135 -81 154 l-18 33 -128 3 c-70 2 -249 6 -398 10 -148 4 -359 8
-467 8 -109 1 -198 4 -198 7 0 3 -37 5 -81 5 l-81 0 -115 200 c-63 110 -126
220 -140 245 -14 25 -72 127 -130 228 -58 101 -103 185 -100 188 3 3 179 7
392 9 212 2 389 5 391 8 3 3 20 1 39 -3 19 -4 36 -6 39 -3 2 3 206 7 452 9
247 3 449 6 450 7 1 1 86 2 188 2 174 0 186 -1 199 -20z m-2347 -196 c6 -8 25
-39 41 -69 17 -30 47 -84 68 -120 21 -36 50 -86 64 -112 14 -25 44 -77 66
-115 22 -37 49 -85 60 -106 11 -20 53 -93 93 -162 l72 -125 -121 -238 c-67
-130 -167 -325 -221 -432 -55 -107 -103 -198 -106 -202 -4 -4 -30 28 -59 70
-28 42 -98 145 -154 227 -56 83 -147 217 -203 299 -55 81 -107 159 -114 173
-11 19 -19 23 -37 19 l-24 -6 27 47 c14 27 30 50 34 51 4 2 8 12 8 23 0 10 5
19 10 19 6 0 10 4 10 9 0 5 17 40 39 78 115 204 211 373 234 415 15 26 46 83
70 125 57 100 81 142 97 173 l13 25 11 -26 c6 -14 16 -32 22 -40z m981 -943
c13 -3 25 0 28 5 4 5 11 6 17 3 9 -6 235 -12 586 -17 50 -1 92 -5 92 -10 0 -4
-27 -64 -60 -133 -33 -69 -60 -127 -60 -129 0 -3 -29 -64 -64 -137 -97 -202
-157 -329 -176 -374 -19 -43 -40 -65 -40 -42 -1 8 -7 5 -18 -7 -18 -22 -17
-22 -282 -11 -63 3 -167 8 -230 10 -340 14 -484 21 -502 25 -4 0 10 34 31 74
21 39 114 221 206 402 92 182 171 335 176 340 8 11 251 11 296 1z m1048 -301
c37 -71 89 -170 115 -220 26 -49 73 -139 105 -200 32 -60 80 -153 107 -205 28
-52 54 -99 59 -105 5 -5 9 -17 9 -26 0 -10 3 -19 8 -21 4 -1 31 -50 61 -108
30 -58 62 -119 72 -136 10 -18 57 -108 105 -200 48 -93 95 -182 104 -199 10
-16 55 -102 101 -190 46 -88 105 -200 131 -250 26 -49 64 -121 84 -160 19 -38
52 -101 73 -140 20 -38 67 -127 103 -196 l67 -126 -255 -382 c-141 -211 -257
-381 -258 -379 -2 1 -18 30 -36 63 -18 33 -81 146 -140 250 -140 250 -157 280
-193 345 -38 71 -69 127 -82 148 -6 9 -41 73 -79 142 -38 69 -138 247 -221
395 -208 371 -204 364 -235 420 -15 28 -36 66 -47 85 -33 59 -71 127 -175 314
-55 99 -110 195 -122 215 l-23 36 23 43 c12 23 20 42 18 42 -2 0 7 21 20 48
14 26 40 81 59 122 56 123 137 293 157 330 10 19 19 38 19 42 1 5 25 59 55
120 30 62 68 144 85 182 38 82 27 90 126 -99z m-2683 78 c207 -303 288 -426
288 -433 0 -4 4 -10 8 -12 9 -3 102 -136 102 -145 0 -3 14 -22 30 -43 17 -21
30 -42 30 -48 0 -6 3 -12 8 -14 4 -1 20 -23 37 -47 l29 -43 -129 -257 c-71
-141 -132 -258 -136 -261 -4 -3 -11 -18 -14 -33 -4 -15 -12 -27 -18 -27 -6 0
-8 -2 -5 -5 3 -3 -15 -45 -41 -93 -25 -49 -73 -142 -106 -208 -33 -65 -63
-120 -67 -122 -5 -2 -8 -12 -8 -23 0 -10 -4 -19 -10 -19 -5 0 -10 -9 -10 -20
0 -11 -4 -20 -10 -20 -5 0 -10 -9 -10 -19 0 -11 -3 -21 -7 -23 -5 -1 -46 -77
-91 -168 -46 -91 -94 -184 -107 -207 -13 -24 -20 -43 -17 -43 4 0 3 -4 -3 -8
-5 -4 -68 -122 -139 -262 -211 -417 -256 -504 -264 -515 -4 -6 -45 -87 -92
-180 -47 -94 -88 -171 -92 -173 -5 -2 -8 -11 -8 -21 0 -9 -4 -21 -9 -26 -5 -6
-32 -57 -62 -115 -29 -58 -59 -109 -66 -113 -15 -9 -18 -57 -3 -57 6 0 14 -10
19 -22 5 -13 26 -59 47 -103 21 -44 39 -83 39 -86 0 -3 10 -25 22 -50 34 -67
244 -523 247 -534 1 -5 12 -29 24 -52 12 -23 22 -48 22 -56 0 -8 -15 -45 -34
-83 -43 -89 -115 -241 -154 -324 -123 -262 -174 -362 -181 -354 -4 5 -66 106
-136 224 -71 118 -135 227 -144 242 -94 157 -131 222 -131 228 0 5 -4 10 -8
12 -5 2 -15 15 -23 30 -8 15 -44 77 -81 139 -38 61 -68 113 -68 115 0 3 -5 10
-10 17 -17 20 -80 129 -80 138 0 5 -4 9 -10 9 -5 0 -10 4 -10 9 0 5 -60 110
-134 233 -74 122 -172 286 -217 362 l-82 139 24 46 c13 25 26 48 29 51 3 3 12
19 20 35 8 17 17 32 20 35 3 3 15 23 27 45 11 22 31 58 43 80 13 22 34 60 48
85 13 25 39 70 56 100 18 30 39 70 47 88 7 17 17 32 21 32 5 0 8 5 8 10 0 6
10 27 23 48 13 20 39 66 59 102 41 76 84 153 109 195 10 17 26 46 36 65 9 19
20 37 23 40 3 3 11 16 18 30 6 14 16 32 21 40 10 16 99 174 191 340 29 52 61
109 71 127 10 18 35 63 55 100 21 37 41 70 46 71 4 2 8 8 8 13 0 8 81 156 167
304 12 22 26 47 30 55 4 8 38 69 75 134 37 66 68 121 68 122 0 2 13 25 29 52
15 26 41 70 56 98 133 239 190 340 195 344 3 3 13 21 22 40 10 19 34 64 54
100 45 79 292 517 308 545 30 54 30 54 68 -2z m1013 -858 c208 -9 295 -12 495
-20 145 -6 222 -10 269 -14 11 -1 10 -6 -3 -25 -8 -13 -32 -55 -52 -93 -20
-37 -40 -72 -44 -78 -4 -5 -24 -41 -44 -78 -20 -37 -45 -82 -55 -100 -10 -18
-58 -104 -106 -192 -49 -88 -93 -161 -97 -163 -4 -2 -8 -10 -8 -18 0 -8 -10
-31 -23 -52 -13 -20 -40 -67 -60 -103 -20 -37 -74 -134 -120 -215 -46 -82 -86
-156 -90 -164 -4 -8 -26 -46 -48 -85 -22 -38 -47 -86 -57 -105 -9 -19 -20 -37
-23 -40 -5 -5 -69 -118 -101 -180 -10 -19 -23 -42 -28 -50 -9 -14 -155 -276
-217 -390 -16 -30 -45 -82 -64 -115 -34 -61 -40 -71 -96 -172 -17 -32 -55
-101 -85 -153 l-54 -95 -219 1 c-371 3 -660 7 -667 11 -4 2 3 23 16 46 23 43
155 298 396 772 73 143 178 348 233 455 140 274 424 828 645 1260 83 164 85
166 116 164 17 -1 103 -6 191 -9z m976 -331 c34 -59 70 -127 95 -174 11 -19
22 -36 27 -38 4 -2 7 -7 7 -12 0 -4 27 -56 60 -115 33 -59 60 -111 60 -115 0
-5 3 -10 8 -12 6 -3 33 -49 81 -143 9 -16 18 -32 21 -35 3 -3 10 -14 16 -25 6
-11 30 -56 54 -100 24 -44 51 -93 61 -110 21 -35 157 -279 213 -380 32 -59
180 -324 249 -445 11 -19 40 -73 66 -119 25 -45 55 -99 67 -120 11 -20 35 -63
53 -96 18 -33 41 -73 51 -90 9 -16 32 -57 50 -90 19 -33 46 -82 61 -110 24
-43 26 -53 14 -68 -14 -19 -29 -19 -1165 -2 -521 8 -1024 15 -1285 18 -146 2
-250 7 -250 13 1 11 27 67 36 74 3 3 16 28 30 55 13 28 27 52 32 53 4 2 7 7 7
12 0 4 24 50 53 101 58 102 101 179 153 276 19 34 47 83 62 110 16 26 31 55
35 63 4 8 11 22 17 30 5 8 30 53 56 100 26 47 60 108 76 135 16 28 36 64 44
80 8 17 25 48 37 70 13 22 41 72 62 110 21 39 41 75 45 80 4 6 23 39 43 75 44
82 132 240 169 305 16 28 36 66 46 85 9 19 20 37 23 40 3 3 25 41 48 85 80
148 104 190 141 255 44 77 99 176 114 207 15 31 25 25 57 -33z m3204 -1457 c1
-3 38 -75 71 -137 16 -30 31 -57 34 -60 3 -3 14 -23 25 -45 11 -22 40 -76 65
-120 25 -44 57 -102 70 -130 14 -27 28 -51 33 -53 4 -2 7 -8 7 -12 0 -5 31
-65 68 -132 96 -174 96 -158 -1 -159 -45 0 -158 -2 -252 -5 -93 -3 -236 -6
-316 -7 l-146 -3 -66 112 c-37 62 -67 118 -67 123 0 5 -3 11 -8 13 -7 3 -136
221 -291 491 -10 17 -28 49 -41 70 -12 20 -18 37 -13 38 17 2 276 9 507 14
132 3 241 7 243 9 4 3 77 -3 78 -7z m-875 -458 c96 -165 186 -319 199 -342 13
-23 32 -55 42 -72 10 -16 27 -48 39 -69 l21 -39 -262 -393 c-145 -217 -265
-394 -269 -394 -3 0 -21 28 -39 63 -19 34 -41 70 -49 80 -8 9 -12 17 -8 17 4
0 -1 12 -12 28 -10 15 -34 54 -51 87 -35 63 -64 115 -108 193 -15 26 -28 49
-28 52 0 3 -8 16 -16 30 -29 45 -67 115 -69 125 -1 6 -7 17 -15 25 -7 8 -27
43 -44 77 l-32 62 133 199 c73 109 138 206 143 214 6 9 25 37 43 62 17 26 32
51 32 57 0 5 4 9 9 9 5 0 13 9 16 20 3 11 12 26 18 32 7 7 28 38 47 68 19 30
37 57 41 60 3 3 11 15 18 28 6 12 15 22 19 22 4 0 86 -136 182 -301z m1150
-652 c0 -5 5 -5 12 -1 7 4 65 8 130 9 l118 1 -21 -35 c-26 -43 -53 -91 -82
-146 -12 -22 -24 -42 -27 -45 -3 -3 -14 -22 -25 -42 -18 -34 -89 -158 -145
-253 -13 -22 -28 -49 -34 -60 -6 -11 -67 -118 -136 -238 -69 -119 -129 -225
-135 -235 -32 -57 -258 -450 -266 -462 -36 -59 -109 -193 -109 -201 0 -5 -4
-9 -8 -9 -4 0 -13 -12 -20 -27 -14 -30 -29 -58 -77 -138 -16 -27 -30 -52 -30
-55 -2 -9 -39 -71 -55 -92 -17 -22 15 -21 -690 -13 -907 10 -1460 17 -1770 20
-1262 13 -1535 17 -1538 19 -1 2 32 72 74 157 119 239 214 438 214 446 0 3 7
14 16 24 8 9 16 23 18 31 3 23 31 78 38 78 5 0 8 6 8 13 0 7 15 42 33 78 l32
64 100 -2 c112 -2 902 -12 1360 -18 553 -7 1258 -16 1443 -19 130 -3 182 0
182 8 0 6 14 27 30 46 16 19 30 41 30 48 0 6 4 12 9 12 5 0 11 8 15 18 3 9
155 240 338 512 l333 495 40 2 c22 1 149 4 283 6 134 3 245 7 247 9 7 7 65 3
65 -5z m-5325 -60 l140 -2 23 -45 c13 -25 78 -151 144 -280 67 -129 147 -285
179 -347 31 -61 56 -113 53 -115 -2 -2 -77 -3 -166 -1 -90 1 -318 3 -506 5
l-344 3 -38 80 c-21 44 -47 100 -58 125 -11 25 -39 86 -62 135 -23 50 -51 110
-62 135 -11 25 -37 81 -58 125 -21 44 -47 103 -60 130 -12 28 -24 53 -27 58
-2 4 155 5 349 2 194 -4 416 -7 493 -8z m1540 -21 c204 -3 532 -8 730 -11
1018 -16 1013 -16 1029 7 14 20 14 20 29 -4 12 -19 92 -161 184 -328 11 -19
31 -55 45 -80 14 -25 60 -108 103 -185 43 -77 81 -145 86 -150 4 -6 12 -22 18
-37 l10 -26 -377 5 c-207 3 -508 6 -669 7 -160 0 -289 4 -286 8 2 5 -7 4 -20
-1 -14 -6 -27 -7 -30 -5 -3 3 -180 7 -394 10 -213 2 -539 6 -723 9 -184 2
-358 4 -387 5 l-52 0 -57 113 c-124 244 -206 403 -216 415 -6 6 -7 12 -3 12 4
0 3 6 -3 13 -11 13 -122 225 -122 233 0 4 207 2 1105 -10z m-1484 -1021 c271
-4 496 -8 500 -10 3 -3 -16 -51 -44 -107 -28 -57 -119 -245 -204 -418 -84
-173 -160 -326 -167 -340 l-15 -25 -238 2 c-596 6 -793 10 -798 15 -5 5 27 74
196 428 33 69 95 199 137 290 64 135 82 165 102 171 14 3 28 4 31 3 4 -2 228
-6 500 -9z"/>
</g>
</svg>
